<svg width="17" height="16" viewBox="0 0 17 16" fill="none" xmlns="http://www.w3.org/2000/svg">
<path d="M1.37443 0.160156C0.686266 0.224739 0.13367 0.772519 0.12027 1.43762C0.270659 5.94525 1.69773 9.5749 4.29091 12.0602C6.88426 14.5452 10.6069 15.8482 15.2282 15.8402C15.9865 15.8436 16.5092 15.2028 16.5232 14.5569C16.5309 13.4918 16.5391 12.4241 16.5465 11.3603C16.5465 10.6171 15.873 10.1348 15.2515 10.1294C14.2943 10.1332 12.9597 9.7853 11.8798 9.51693C11.6955 9.4724 11.4899 9.52943 11.3548 9.66277L9.57569 11.3895C7.43233 10.1024 6.45071 9.15407 5.13071 7.07881L6.89814 5.36972C7.04124 5.23158 7.10152 5.01346 7.04983 4.82143C6.75881 3.73197 6.279 2.31244 6.3557 1.31545C6.27992 0.537187 5.54137 0.156356 4.95571 0.160523H1.37406L1.37443 0.160156ZM1.38029 1.28022H4.9796C5.16046 1.2836 5.16046 1.2836 5.24796 1.44936C5.21476 2.65091 5.60902 3.86471 5.87789 4.79767L4.02297 6.60599C3.84224 6.78151 3.80396 7.08529 3.93547 7.30012C5.53102 9.88644 6.71435 11.0341 9.3721 12.5851C9.58121 12.7066 9.8691 12.6715 10.0429 12.5034L11.9155 10.6777C12.9311 10.9343 14.1495 11.2537 15.2578 11.2493C15.3381 11.2644 15.4173 11.3782 15.4269 11.3893L15.4036 14.551C15.3647 14.6421 15.4269 14.7236 15.1936 14.7201C10.7999 14.7201 7.40962 13.494 5.06697 11.2495C2.71801 8.99872 1.38365 5.69084 1.24032 1.3972C1.24032 1.28392 1.24032 1.28392 1.38029 1.28053L1.38029 1.28022Z" fill="#F0F1F6"/>
</svg>
