<svg width="60" height="60" viewBox="0 0 60 60" fill="none" xmlns="http://www.w3.org/2000/svg">
<circle cx="30" cy="30" r="30" fill="#A65E34"/>
<path d="M15.0567 22.0761L15.0563 22.0766C14.9333 22.2126 14.8524 22.3433 14.8051 22.4816C14.7581 22.6189 14.75 22.7473 14.75 22.8651V45.028C14.75 45.3439 14.8462 45.6294 15.0365 45.8389C15.2288 46.0506 15.4997 46.1648 15.8061 46.1648H37.565C37.7249 46.1648 37.8765 46.1142 37.9992 46.0516C38.1224 45.9887 38.2338 45.9049 38.3136 45.8179L38.3144 45.817L45.5671 37.8387C45.7666 37.6192 45.8738 37.3836 45.8738 37.0497L45.8732 14.8868C45.8732 14.5708 45.7771 14.2854 45.5868 14.0759C45.3946 13.8642 45.1239 13.75 44.8177 13.75H23.0588C22.9056 13.75 22.7664 13.7785 22.6368 13.8417C22.509 13.9041 22.4038 13.9939 22.3094 14.0977L15.0567 22.0761ZM42.3181 16.0229L37.1316 21.729H32.005L37.1915 16.0235L42.3181 16.0229ZM24.9206 24.0018H28.45V27.0476H24.9206V24.0018ZM29.0729 21.7284L26.364 21.7289L31.5504 16.0235L34.2593 16.023L29.0729 21.7284ZM23.4916 16.0229H28.6182L23.4317 21.7283H18.305L23.4916 16.0229ZM16.8617 24.0018H22.8089V28.1844C22.8089 28.5003 22.9051 28.7859 23.0954 28.9953C23.2878 29.207 23.5586 29.3212 23.865 29.3212H29.5061C29.8122 29.3212 30.083 29.2072 30.2754 28.9957C30.4658 28.7863 30.5622 28.5007 30.5622 28.1844V24.0018H36.5094V43.8917H16.8623L16.8617 24.0018ZM43.7616 36.5985L38.6206 42.2539V23.3166L43.7616 17.6611V36.5985Z" fill="white" stroke="white" stroke-width="0.5"/>
</svg>
