<svg width="60" height="60" viewBox="0 0 60 60" fill="none" xmlns="http://www.w3.org/2000/svg">
<circle cx="30" cy="30" r="30" fill="#A65E34"/>
<path d="M38.5253 50.1231C38.4465 50.2097 38.3545 50.2831 38.251 50.3384C37.8962 50.5295 37.4705 50.4812 37.1523 50.2139L29.7828 44.0129L23.0464 50.076C22.7356 50.356 22.3034 50.4112 21.9369 50.2178C21.57 50.0245 21.3344 49.6177 21.3315 49.1728L21.1028 14.2906C21.0986 13.6551 21.5631 13.1441 22.141 13.1485L37.5439 13.2707C38.1217 13.2753 38.5929 13.7937 38.5972 14.4294L38.8255 49.3122C38.8279 49.6225 38.7165 49.9126 38.5248 50.1234L38.5253 50.1231ZM23.4075 46.7576L29.0801 41.6523C29.4526 41.3169 29.9893 41.3102 30.3773 41.6366L36.7191 46.9728L36.5132 15.5635L23.2017 15.4584L23.4075 46.7576ZM32.2279 23.0969C31.6126 23.7738 30.791 24.1431 29.9142 24.1361C29.0372 24.1294 28.2105 23.7468 27.5862 23.0601C26.9621 22.3732 26.6146 21.4639 26.6082 20.4994C26.6019 19.5345 26.9376 18.6307 27.5533 17.9534C28.1686 17.2765 28.9902 16.9072 29.867 16.9142C30.7438 16.9211 31.5702 17.3033 32.1948 17.9904C32.8195 18.6775 33.1666 19.5868 33.173 20.5513C33.1793 21.5158 32.8434 22.4199 32.2279 23.0969ZM29.0434 19.5926C28.8203 19.8381 28.6981 20.1662 28.7006 20.5164C28.7033 20.8664 28.8287 21.1961 29.0553 21.4453C29.2816 21.6943 29.5815 21.8329 29.8998 21.8356C30.536 21.8409 31.0863 21.2342 31.0819 20.5353C31.0792 20.1853 30.9534 19.8552 30.7269 19.606C30.5006 19.357 30.2008 19.2182 29.8828 19.2155C29.5643 19.2133 29.2666 19.3472 29.0435 19.5926L29.0434 19.5926Z" fill="white"/>
</svg>
