<svg width="60" height="60" viewBox="0 0 60 60" fill="none" xmlns="http://www.w3.org/2000/svg">
<circle cx="30" cy="30" r="30" fill="#A65E34"/>
<mask id="path-2-outside-1_564_2001" maskUnits="userSpaceOnUse" x="10" y="8.87842" width="39" height="37" fill="black">
<rect fill="white" x="10" y="8.87842" width="39" height="37"/>
<path d="M34.2284 28.5012C35.6858 27.1844 37.6323 26.4533 39.6548 26.463C41.1035 26.4337 42.5299 26.8007 43.7601 27.52C44.9904 28.2393 45.9708 29.2793 46.5819 30.5131C46.7462 30.864 47.1818 31.0237 47.5558 30.8702C47.9297 30.7167 48.1009 30.3079 47.9381 29.9565C46.9037 27.7957 44.9207 26.1635 42.5044 25.4833C43.7109 24.5322 44.4017 23.1243 44.3876 21.6451C44.3876 18.9886 42.265 16.8272 39.6563 16.8272C38.6647 16.8512 37.7058 17.1646 36.9128 17.7245C36.1202 18.2844 35.5329 19.0623 35.2333 19.9502C34.3698 19.3203 33.3934 18.841 32.3499 18.5348C33.5568 17.5837 34.2477 16.1758 34.2339 14.6963C34.2339 12.0398 32.1113 9.87842 29.5023 9.87842C26.8937 9.87842 24.771 12.0398 24.771 14.6963C24.757 16.1758 25.4481 17.5837 26.6548 18.5348C25.6104 18.8415 24.6328 19.3211 23.7682 19.9513C23.4689 19.0631 22.8816 18.2849 22.0887 17.7248C21.2958 17.1649 20.3366 16.8512 19.3449 16.8272C16.7362 16.8272 14.6136 18.9886 14.6136 21.6451C14.5996 23.1243 15.2904 24.5322 16.4968 25.4833C14.0805 26.1635 12.0975 27.7957 11.0632 29.9565C10.9837 30.1254 10.9794 30.3171 11.0508 30.4892C11.1222 30.6612 11.2636 30.7997 11.4437 30.8734C11.6241 30.9475 11.8283 30.951 12.0112 30.8834C12.1942 30.8158 12.341 30.6828 12.4193 30.5131C13.0304 29.2793 14.0108 28.2393 15.2411 27.52C16.4713 26.8007 17.8977 26.4336 19.3464 26.463C21.3709 26.4525 23.3195 27.185 24.7768 28.5045C24.7958 29.943 25.4808 31.3024 26.6537 32.2282C25.6095 32.535 24.6323 33.0148 23.7679 33.6447C23.4683 32.7569 22.8813 31.9786 22.0884 31.419C21.2954 30.8592 20.3365 30.5455 19.3449 30.5217C16.7362 30.5217 14.6136 32.6831 14.6136 35.3396C14.5996 36.8191 15.2907 38.2273 16.4976 39.1784C14.082 39.8586 12.0993 41.4897 11.0635 43.6492C10.9838 43.8183 10.9789 44.01 11.05 44.1824C11.1211 44.3547 11.2625 44.4932 11.4429 44.5675C11.623 44.6415 11.8275 44.6453 12.0107 44.5777C12.1936 44.5101 12.3408 44.3768 12.4188 44.2072C13.0307 42.9738 14.0114 41.9341 15.2414 41.2151C16.4716 40.4964 17.898 40.129 19.3464 40.1581C20.7951 40.1288 22.2215 40.4961 23.4517 41.2151C24.6816 41.9341 25.6623 42.9736 26.274 44.2069C26.438 44.5586 26.8745 44.7185 27.2487 44.5645C27.6229 44.4107 27.7932 44.0009 27.6295 43.6495C26.5934 41.4892 24.6099 39.8573 22.193 39.1777C23.3994 38.2265 24.09 36.8189 24.0762 35.3397C24.0762 35.3088 24.0721 35.2791 24.0716 35.2484C25.5349 33.9386 27.4789 33.208 29.5006 33.208C31.5219 33.2077 33.4662 33.9381 34.9295 35.2476C34.929 35.2786 34.925 35.3087 34.925 35.3397C34.9112 36.8189 35.6017 38.2265 36.8081 39.1776C34.3913 39.8573 32.4078 41.4892 31.3716 43.6495C31.2079 44.0009 31.3782 44.4108 31.7524 44.5645C32.1267 44.7185 32.5631 44.5586 32.7271 44.2069C33.3388 42.9735 34.3195 41.934 35.5494 41.2151C36.7797 40.4961 38.206 40.1288 39.6547 40.1581C41.1031 40.129 42.5295 40.4963 43.7598 41.2151C44.9897 41.9341 45.9704 42.9738 46.5824 44.2071C46.7464 44.5586 47.1828 44.7185 47.557 44.5645C47.9313 44.4105 48.1016 44.0006 47.9376 43.6492C46.9018 41.4898 44.9191 39.8587 42.5034 39.1784C43.7104 38.2273 44.4015 36.8191 44.3875 35.3396C44.3875 32.6831 42.2649 30.5218 39.6562 30.5218C38.6648 30.5455 37.7059 30.8589 36.9133 31.4188C36.1204 31.9784 35.5334 32.756 35.2334 33.6439C34.3703 33.014 33.3941 32.5347 32.3509 32.2282C33.5246 31.3019 34.2102 29.9412 34.2283 28.5013L34.2284 28.5012ZM19.345 38.7675C17.5521 38.7675 16.0937 37.2296 16.0937 35.3394C16.0937 33.449 17.5521 31.9111 19.345 31.9111C21.0231 31.9111 22.4079 33.2587 22.5785 34.9813C22.5909 35.1095 22.5966 35.2237 22.5966 35.3395C22.5963 37.2299 21.1379 38.7676 19.345 38.7676L19.345 38.7675ZM39.6565 31.9111C41.4493 31.9111 42.9078 33.4491 42.9078 35.3394C42.9078 37.2299 41.4493 38.7675 39.6565 38.7675C37.8636 38.7675 36.4051 37.2296 36.4051 35.3394C36.4051 35.2239 36.4109 35.11 36.4215 34.9974C36.5932 33.2592 37.978 31.9111 39.6564 31.9111L39.6565 31.9111ZM39.6565 18.2165C41.4493 18.2165 42.9078 19.7545 42.9078 21.6448C42.9078 23.5352 41.4493 25.0731 39.6565 25.0731C37.8636 25.0731 36.4051 23.5352 36.4051 21.6448C36.4051 21.5298 36.4109 21.4165 36.4215 21.3045C36.593 19.5646 37.978 18.2168 39.6564 18.2168L39.6565 18.2165ZM29.5022 11.2675C31.295 11.2675 32.7541 12.8055 32.7541 14.6959C32.7541 16.5862 31.295 18.1242 29.5022 18.1242C27.7093 18.1242 26.2509 16.5862 26.2509 14.6959C26.2506 12.8054 27.709 11.2675 29.5022 11.2675ZM29.5005 19.514C31.5238 19.5043 33.4716 20.2362 34.9295 21.5538C34.9289 21.5845 34.9249 21.6142 34.9249 21.6449C34.9111 23.1241 35.6016 24.5319 36.808 25.4831C35.7883 25.7817 34.8319 26.2457 33.9826 26.854C33.7067 25.9293 33.1231 25.112 32.3168 24.5214C31.5104 23.9312 30.5242 23.5986 29.5019 23.5724C28.4799 23.5986 27.4931 23.9314 26.6867 24.5222C25.8807 25.1128 25.2968 25.9306 25.0212 26.8554C24.1712 26.246 23.2143 25.7814 22.1931 25.4825C23.3993 24.5314 24.0898 23.1238 24.076 21.6449C24.076 21.6144 24.072 21.5848 24.0714 21.5546C25.5296 20.2376 27.477 19.5056 29.5004 19.5139L29.5005 19.514ZM19.3447 18.2168C21.0231 18.2168 22.408 19.5646 22.5783 21.2873C22.5903 21.4162 22.5964 21.5299 22.5964 21.6449C22.5964 23.5353 21.1379 25.0732 19.345 25.0732C17.5522 25.0732 16.0937 23.5352 16.0937 21.6449C16.0934 19.7547 17.5519 18.2168 19.3447 18.2168L19.3447 18.2168ZM29.5159 31.8177C27.7006 31.8088 26.2503 30.2752 26.2503 28.3904C26.2503 26.5 27.7087 24.9621 29.5016 24.9621C31.2944 24.9621 32.7535 26.5 32.7535 28.3904C32.7535 30.2754 31.3021 31.8093 29.5159 31.8177Z"/>
</mask>
<path d="M34.2284 28.5012C35.6858 27.1844 37.6323 26.4533 39.6548 26.463C41.1035 26.4337 42.5299 26.8007 43.7601 27.52C44.9904 28.2393 45.9708 29.2793 46.5819 30.5131C46.7462 30.864 47.1818 31.0237 47.5558 30.8702C47.9297 30.7167 48.1009 30.3079 47.9381 29.9565C46.9037 27.7957 44.9207 26.1635 42.5044 25.4833C43.7109 24.5322 44.4017 23.1243 44.3876 21.6451C44.3876 18.9886 42.265 16.8272 39.6563 16.8272C38.6647 16.8512 37.7058 17.1646 36.9128 17.7245C36.1202 18.2844 35.5329 19.0623 35.2333 19.9502C34.3698 19.3203 33.3934 18.841 32.3499 18.5348C33.5568 17.5837 34.2477 16.1758 34.2339 14.6963C34.2339 12.0398 32.1113 9.87842 29.5023 9.87842C26.8937 9.87842 24.771 12.0398 24.771 14.6963C24.757 16.1758 25.4481 17.5837 26.6548 18.5348C25.6104 18.8415 24.6328 19.3211 23.7682 19.9513C23.4689 19.0631 22.8816 18.2849 22.0887 17.7248C21.2958 17.1649 20.3366 16.8512 19.3449 16.8272C16.7362 16.8272 14.6136 18.9886 14.6136 21.6451C14.5996 23.1243 15.2904 24.5322 16.4968 25.4833C14.0805 26.1635 12.0975 27.7957 11.0632 29.9565C10.9837 30.1254 10.9794 30.3171 11.0508 30.4892C11.1222 30.6612 11.2636 30.7997 11.4437 30.8734C11.6241 30.9475 11.8283 30.951 12.0112 30.8834C12.1942 30.8158 12.341 30.6828 12.4193 30.5131C13.0304 29.2793 14.0108 28.2393 15.2411 27.52C16.4713 26.8007 17.8977 26.4336 19.3464 26.463C21.3709 26.4525 23.3195 27.185 24.7768 28.5045C24.7958 29.943 25.4808 31.3024 26.6537 32.2282C25.6095 32.535 24.6323 33.0148 23.7679 33.6447C23.4683 32.7569 22.8813 31.9786 22.0884 31.419C21.2954 30.8592 20.3365 30.5455 19.3449 30.5217C16.7362 30.5217 14.6136 32.6831 14.6136 35.3396C14.5996 36.8191 15.2907 38.2273 16.4976 39.1784C14.082 39.8586 12.0993 41.4897 11.0635 43.6492C10.9838 43.8183 10.9789 44.01 11.05 44.1824C11.1211 44.3547 11.2625 44.4932 11.4429 44.5675C11.623 44.6415 11.8275 44.6453 12.0107 44.5777C12.1936 44.5101 12.3408 44.3768 12.4188 44.2072C13.0307 42.9738 14.0114 41.9341 15.2414 41.2151C16.4716 40.4964 17.898 40.129 19.3464 40.1581C20.7951 40.1288 22.2215 40.4961 23.4517 41.2151C24.6816 41.9341 25.6623 42.9736 26.274 44.2069C26.438 44.5586 26.8745 44.7185 27.2487 44.5645C27.6229 44.4107 27.7932 44.0009 27.6295 43.6495C26.5934 41.4892 24.6099 39.8573 22.193 39.1777C23.3994 38.2265 24.09 36.8189 24.0762 35.3397C24.0762 35.3088 24.0721 35.2791 24.0716 35.2484C25.5349 33.9386 27.4789 33.208 29.5006 33.208C31.5219 33.2077 33.4662 33.9381 34.9295 35.2476C34.929 35.2786 34.925 35.3087 34.925 35.3397C34.9112 36.8189 35.6017 38.2265 36.8081 39.1776C34.3913 39.8573 32.4078 41.4892 31.3716 43.6495C31.2079 44.0009 31.3782 44.4108 31.7524 44.5645C32.1267 44.7185 32.5631 44.5586 32.7271 44.2069C33.3388 42.9735 34.3195 41.934 35.5494 41.2151C36.7797 40.4961 38.206 40.1288 39.6547 40.1581C41.1031 40.129 42.5295 40.4963 43.7598 41.2151C44.9897 41.9341 45.9704 42.9738 46.5824 44.2071C46.7464 44.5586 47.1828 44.7185 47.557 44.5645C47.9313 44.4105 48.1016 44.0006 47.9376 43.6492C46.9018 41.4898 44.9191 39.8587 42.5034 39.1784C43.7104 38.2273 44.4015 36.8191 44.3875 35.3396C44.3875 32.6831 42.2649 30.5218 39.6562 30.5218C38.6648 30.5455 37.7059 30.8589 36.9133 31.4188C36.1204 31.9784 35.5334 32.756 35.2334 33.6439C34.3703 33.014 33.3941 32.5347 32.3509 32.2282C33.5246 31.3019 34.2102 29.9412 34.2283 28.5013L34.2284 28.5012ZM19.345 38.7675C17.5521 38.7675 16.0937 37.2296 16.0937 35.3394C16.0937 33.449 17.5521 31.9111 19.345 31.9111C21.0231 31.9111 22.4079 33.2587 22.5785 34.9813C22.5909 35.1095 22.5966 35.2237 22.5966 35.3395C22.5963 37.2299 21.1379 38.7676 19.345 38.7676L19.345 38.7675ZM39.6565 31.9111C41.4493 31.9111 42.9078 33.4491 42.9078 35.3394C42.9078 37.2299 41.4493 38.7675 39.6565 38.7675C37.8636 38.7675 36.4051 37.2296 36.4051 35.3394C36.4051 35.2239 36.4109 35.11 36.4215 34.9974C36.5932 33.2592 37.978 31.9111 39.6564 31.9111L39.6565 31.9111ZM39.6565 18.2165C41.4493 18.2165 42.9078 19.7545 42.9078 21.6448C42.9078 23.5352 41.4493 25.0731 39.6565 25.0731C37.8636 25.0731 36.4051 23.5352 36.4051 21.6448C36.4051 21.5298 36.4109 21.4165 36.4215 21.3045C36.593 19.5646 37.978 18.2168 39.6564 18.2168L39.6565 18.2165ZM29.5022 11.2675C31.295 11.2675 32.7541 12.8055 32.7541 14.6959C32.7541 16.5862 31.295 18.1242 29.5022 18.1242C27.7093 18.1242 26.2509 16.5862 26.2509 14.6959C26.2506 12.8054 27.709 11.2675 29.5022 11.2675ZM29.5005 19.514C31.5238 19.5043 33.4716 20.2362 34.9295 21.5538C34.9289 21.5845 34.9249 21.6142 34.9249 21.6449C34.9111 23.1241 35.6016 24.5319 36.808 25.4831C35.7883 25.7817 34.8319 26.2457 33.9826 26.854C33.7067 25.9293 33.1231 25.112 32.3168 24.5214C31.5104 23.9312 30.5242 23.5986 29.5019 23.5724C28.4799 23.5986 27.4931 23.9314 26.6867 24.5222C25.8807 25.1128 25.2968 25.9306 25.0212 26.8554C24.1712 26.246 23.2143 25.7814 22.1931 25.4825C23.3993 24.5314 24.0898 23.1238 24.076 21.6449C24.076 21.6144 24.072 21.5848 24.0714 21.5546C25.5296 20.2376 27.477 19.5056 29.5004 19.5139L29.5005 19.514ZM19.3447 18.2168C21.0231 18.2168 22.408 19.5646 22.5783 21.2873C22.5903 21.4162 22.5964 21.5299 22.5964 21.6449C22.5964 23.5353 21.1379 25.0732 19.345 25.0732C17.5522 25.0732 16.0937 23.5352 16.0937 21.6449C16.0934 19.7547 17.5519 18.2168 19.3447 18.2168L19.3447 18.2168ZM29.5159 31.8177C27.7006 31.8088 26.2503 30.2752 26.2503 28.3904C26.2503 26.5 27.7087 24.9621 29.5016 24.9621C31.2944 24.9621 32.7535 26.5 32.7535 28.3904C32.7535 30.2754 31.3021 31.8093 29.5159 31.8177Z" fill="white"/>
<path d="M34.2284 28.5012C35.6858 27.1844 37.6323 26.4533 39.6548 26.463C41.1035 26.4337 42.5299 26.8007 43.7601 27.52C44.9904 28.2393 45.9708 29.2793 46.5819 30.5131C46.7462 30.864 47.1818 31.0237 47.5558 30.8702C47.9297 30.7167 48.1009 30.3079 47.9381 29.9565C46.9037 27.7957 44.9207 26.1635 42.5044 25.4833C43.7109 24.5322 44.4017 23.1243 44.3876 21.6451C44.3876 18.9886 42.265 16.8272 39.6563 16.8272C38.6647 16.8512 37.7058 17.1646 36.9128 17.7245C36.1202 18.2844 35.5329 19.0623 35.2333 19.9502C34.3698 19.3203 33.3934 18.841 32.3499 18.5348C33.5568 17.5837 34.2477 16.1758 34.2339 14.6963C34.2339 12.0398 32.1113 9.87842 29.5023 9.87842C26.8937 9.87842 24.771 12.0398 24.771 14.6963C24.757 16.1758 25.4481 17.5837 26.6548 18.5348C25.6104 18.8415 24.6328 19.3211 23.7682 19.9513C23.4689 19.0631 22.8816 18.2849 22.0887 17.7248C21.2958 17.1649 20.3366 16.8512 19.3449 16.8272C16.7362 16.8272 14.6136 18.9886 14.6136 21.6451C14.5996 23.1243 15.2904 24.5322 16.4968 25.4833C14.0805 26.1635 12.0975 27.7957 11.0632 29.9565C10.9837 30.1254 10.9794 30.3171 11.0508 30.4892C11.1222 30.6612 11.2636 30.7997 11.4437 30.8734C11.6241 30.9475 11.8283 30.951 12.0112 30.8834C12.1942 30.8158 12.341 30.6828 12.4193 30.5131C13.0304 29.2793 14.0108 28.2393 15.2411 27.52C16.4713 26.8007 17.8977 26.4336 19.3464 26.463C21.3709 26.4525 23.3195 27.185 24.7768 28.5045C24.7958 29.943 25.4808 31.3024 26.6537 32.2282C25.6095 32.535 24.6323 33.0148 23.7679 33.6447C23.4683 32.7569 22.8813 31.9786 22.0884 31.419C21.2954 30.8592 20.3365 30.5455 19.3449 30.5217C16.7362 30.5217 14.6136 32.6831 14.6136 35.3396C14.5996 36.8191 15.2907 38.2273 16.4976 39.1784C14.082 39.8586 12.0993 41.4897 11.0635 43.6492C10.9838 43.8183 10.9789 44.01 11.05 44.1824C11.1211 44.3547 11.2625 44.4932 11.4429 44.5675C11.623 44.6415 11.8275 44.6453 12.0107 44.5777C12.1936 44.5101 12.3408 44.3768 12.4188 44.2072C13.0307 42.9738 14.0114 41.9341 15.2414 41.2151C16.4716 40.4964 17.898 40.129 19.3464 40.1581C20.7951 40.1288 22.2215 40.4961 23.4517 41.2151C24.6816 41.9341 25.6623 42.9736 26.274 44.2069C26.438 44.5586 26.8745 44.7185 27.2487 44.5645C27.6229 44.4107 27.7932 44.0009 27.6295 43.6495C26.5934 41.4892 24.6099 39.8573 22.193 39.1777C23.3994 38.2265 24.09 36.8189 24.0762 35.3397C24.0762 35.3088 24.0721 35.2791 24.0716 35.2484C25.5349 33.9386 27.4789 33.208 29.5006 33.208C31.5219 33.2077 33.4662 33.9381 34.9295 35.2476C34.929 35.2786 34.925 35.3087 34.925 35.3397C34.9112 36.8189 35.6017 38.2265 36.8081 39.1776C34.3913 39.8573 32.4078 41.4892 31.3716 43.6495C31.2079 44.0009 31.3782 44.4108 31.7524 44.5645C32.1267 44.7185 32.5631 44.5586 32.7271 44.2069C33.3388 42.9735 34.3195 41.934 35.5494 41.2151C36.7797 40.4961 38.206 40.1288 39.6547 40.1581C41.1031 40.129 42.5295 40.4963 43.7598 41.2151C44.9897 41.9341 45.9704 42.9738 46.5824 44.2071C46.7464 44.5586 47.1828 44.7185 47.557 44.5645C47.9313 44.4105 48.1016 44.0006 47.9376 43.6492C46.9018 41.4898 44.9191 39.8587 42.5034 39.1784C43.7104 38.2273 44.4015 36.8191 44.3875 35.3396C44.3875 32.6831 42.2649 30.5218 39.6562 30.5218C38.6648 30.5455 37.7059 30.8589 36.9133 31.4188C36.1204 31.9784 35.5334 32.756 35.2334 33.6439C34.3703 33.014 33.3941 32.5347 32.3509 32.2282C33.5246 31.3019 34.2102 29.9412 34.2283 28.5013L34.2284 28.5012ZM19.345 38.7675C17.5521 38.7675 16.0937 37.2296 16.0937 35.3394C16.0937 33.449 17.5521 31.9111 19.345 31.9111C21.0231 31.9111 22.4079 33.2587 22.5785 34.9813C22.5909 35.1095 22.5966 35.2237 22.5966 35.3395C22.5963 37.2299 21.1379 38.7676 19.345 38.7676L19.345 38.7675ZM39.6565 31.9111C41.4493 31.9111 42.9078 33.4491 42.9078 35.3394C42.9078 37.2299 41.4493 38.7675 39.6565 38.7675C37.8636 38.7675 36.4051 37.2296 36.4051 35.3394C36.4051 35.2239 36.4109 35.11 36.4215 34.9974C36.5932 33.2592 37.978 31.9111 39.6564 31.9111L39.6565 31.9111ZM39.6565 18.2165C41.4493 18.2165 42.9078 19.7545 42.9078 21.6448C42.9078 23.5352 41.4493 25.0731 39.6565 25.0731C37.8636 25.0731 36.4051 23.5352 36.4051 21.6448C36.4051 21.5298 36.4109 21.4165 36.4215 21.3045C36.593 19.5646 37.978 18.2168 39.6564 18.2168L39.6565 18.2165ZM29.5022 11.2675C31.295 11.2675 32.7541 12.8055 32.7541 14.6959C32.7541 16.5862 31.295 18.1242 29.5022 18.1242C27.7093 18.1242 26.2509 16.5862 26.2509 14.6959C26.2506 12.8054 27.709 11.2675 29.5022 11.2675ZM29.5005 19.514C31.5238 19.5043 33.4716 20.2362 34.9295 21.5538C34.9289 21.5845 34.9249 21.6142 34.9249 21.6449C34.9111 23.1241 35.6016 24.5319 36.808 25.4831C35.7883 25.7817 34.8319 26.2457 33.9826 26.854C33.7067 25.9293 33.1231 25.112 32.3168 24.5214C31.5104 23.9312 30.5242 23.5986 29.5019 23.5724C28.4799 23.5986 27.4931 23.9314 26.6867 24.5222C25.8807 25.1128 25.2968 25.9306 25.0212 26.8554C24.1712 26.246 23.2143 25.7814 22.1931 25.4825C23.3993 24.5314 24.0898 23.1238 24.076 21.6449C24.076 21.6144 24.072 21.5848 24.0714 21.5546C25.5296 20.2376 27.477 19.5056 29.5004 19.5139L29.5005 19.514ZM19.3447 18.2168C21.0231 18.2168 22.408 19.5646 22.5783 21.2873C22.5903 21.4162 22.5964 21.5299 22.5964 21.6449C22.5964 23.5353 21.1379 25.0732 19.345 25.0732C17.5522 25.0732 16.0937 23.5352 16.0937 21.6449C16.0934 19.7547 17.5519 18.2168 19.3447 18.2168L19.3447 18.2168ZM29.5159 31.8177C27.7006 31.8088 26.2503 30.2752 26.2503 28.3904C26.2503 26.5 27.7087 24.9621 29.5016 24.9621C31.2944 24.9621 32.7535 26.5 32.7535 28.3904C32.7535 30.2754 31.3021 31.8093 29.5159 31.8177Z" stroke="white" stroke-width="0.853661" mask="url(#path-2-outside-1_564_2001)"/>
</svg>
