<svg width="60" height="60" viewBox="0 0 60 60" fill="none" xmlns="http://www.w3.org/2000/svg">
<circle cx="30" cy="30" r="30" fill="#A65E34"/>
<path d="M40.6648 18.6708C40.263 18.7471 39.9197 19.0008 39.7072 19.3553L26.9749 37.5808L20.2855 28.9445C20.0642 28.5831 19.7064 28.3297 19.2916 28.2649L19.2913 28.2648C18.8683 28.1991 18.4458 28.3387 18.1331 28.6358C17.8217 28.9311 17.6495 29.3519 17.6471 29.7862L17.6471 29.7865C17.645 30.2124 17.8066 30.6264 18.1021 30.9238L25.9271 41.0442C26.1553 41.3485 26.4862 41.5523 26.8542 41.6055L40.7306 19.0175M40.6648 18.6708L40.7306 19.0175M40.6648 18.6708C40.6647 18.6708 40.6646 18.6708 40.6645 18.6708L40.7306 19.0175M40.6648 18.6708C41.0725 18.5931 41.4863 18.7085 41.8047 18.9779M40.7306 19.0175C41.0296 18.9605 41.3363 19.0439 41.5767 19.2474M41.8047 18.9779L41.5767 19.2474M41.8047 18.9779C42.1213 19.2459 42.3139 19.6396 42.3475 20.0596M41.8047 18.9779C41.8047 18.9779 41.8047 18.9779 41.8047 18.978L41.5767 19.2474M41.5767 19.2474L42.3475 20.0596M42.3475 20.0596C42.3475 20.0595 42.3475 20.0594 42.3475 20.0593L41.9957 20.0878L42.3475 20.0596ZM42.3475 20.0596C42.381 20.4741 42.2578 20.8901 41.9992 21.2093M42.3475 20.0596L41.7176 20.9962M41.9992 21.2093L42.0068 21.1984L41.7176 20.9962M41.9992 21.2093C41.996 21.2132 41.9928 21.2172 41.9896 21.2211L41.7176 20.9962M41.9992 21.2093L28.1637 40.9952L27.8732 40.7948M41.7176 20.9962L27.8732 40.7948M27.8732 40.7948L28.1624 40.9971L28.163 40.9962L27.8732 40.7948ZM27.2012 37.8731L26.9895 38.1761L26.7631 37.8839L27.2012 37.8731Z" fill="white" stroke="white" stroke-width="0.705882"/>
</svg>
