<svg width="40" height="48" viewBox="0 0 40 48" fill="none" xmlns="http://www.w3.org/2000/svg">
<path d="M33.3294 2.10034L32.485 1.85544C32.2631 1.77949 26.823 0 19.5125 0C15.2091 0 11.1057 0.622448 7.32248 1.8507L6.5296 2.10634C6.47662 2.24195 1.15175 16.4561 0.00426544 29.2066C-0.0224109 29.5034 0.0768833 29.798 0.278436 30.0184C0.47962 30.2385 0.764539 30.3637 1.06242 30.3637H6.33357C5.46992 35.6568 4.64781 41.3833 4.64781 44.0163V44.8203L5.46255 45.0926C5.7834 45.183 13.4495 47.3605 21.7396 47.3605H21.7418C26.681 47.3605 30.837 46.542 34.0646 45.0326L34.7441 44.6676L34.7201 43.9366C34.6871 43.502 34.2154 37.0571 33.0909 30.3628H38.1858C38.4825 30.3628 38.7656 30.239 38.9672 30.0208C39.168 29.8029 39.2687 29.511 39.245 29.2157C38.0957 14.8565 33.5397 2.56403 33.33 2.10022L33.3294 2.10034ZM28.4268 17.3568C26.9989 16.1612 24.5324 14.0579 21.9359 11.6829C23.2982 10.7778 25.4368 8.52257 27.6754 2.89565C29.1345 3.16982 30.2638 3.45771 30.9433 3.64888C30.7673 8.10234 29.2037 14.4427 28.4268 17.3565V17.3568ZM19.5143 2.1269C21.7374 2.1269 23.7736 2.30548 25.5239 2.54668C22.953 8.80521 20.7321 9.98124 20.2934 10.1576C17.5012 7.52398 14.7984 4.74557 13.3131 2.60928C15.3168 2.29175 17.3871 2.12689 19.5142 2.12689L19.5143 2.1269ZM11.058 3.0376C14.0068 7.82122 23.357 15.8849 26.9423 18.8888C21.1295 20.682 12.66 19.037 10.283 18.5116C9.6191 14.844 8.96995 6.32824 8.77475 3.62788C9.52242 3.40484 10.2853 3.2107 11.0581 3.03767L11.058 3.0376ZM2.2348 28.24C3.08363 20.4524 5.38892 12.514 6.93761 7.80851C7.25477 11.7189 7.74124 16.9385 8.24995 19.4067C8.07507 20.3522 7.39223 24.0368 6.66711 28.3488L2.2348 28.24ZM21.7405 45.2369H21.7383C15.2567 45.2369 9.03232 43.7905 6.87545 43.2558C7.13109 37.9921 9.5205 24.5478 10.2237 20.6779C12.0284 21.0658 15.7757 21.7547 19.8016 21.8254C18.8138 24.2462 17.055 29.1299 17.055 33.2244C17.055 33.8109 17.5311 34.2866 18.1173 34.2866C18.7038 34.2866 19.1795 33.8105 19.1795 33.2244C19.1795 30.0821 20.3836 26.2759 21.3136 23.8032C21.876 24.9477 22.594 26.7183 23.2517 29.2726C23.3751 29.7517 23.8067 30.0699 24.2799 30.0699C24.367 30.0699 24.4562 30.0588 24.5455 30.0366C25.1135 29.8906 25.4555 29.3115 25.3095 28.7427C24.3777 25.1251 23.3118 22.9225 22.6308 21.7632C24.6549 21.6294 26.6515 21.2893 28.4177 20.6275C30.9616 27.4055 32.1979 40.194 32.4762 43.4065C29.6286 44.5862 26.022 45.2379 21.7393 45.2379L21.7405 45.2369ZM32.7108 28.24C32.0739 24.8747 31.2655 21.6009 30.2585 19.1552C30.659 17.7428 32.1251 12.6285 32.8771 7.80273C34.1606 11.882 36.1751 19.3535 37.0253 28.2408L32.7108 28.2404V28.24Z" fill="#A65E34"/>
</svg>
